<?xml version="1.0" encoding="utf-8"?>
<!-- Generator: Adobe Illustrator 16.0.0, SVG Export Plug-In . SVG Version: 6.00 Build 0)  -->
<!DOCTYPE svg PUBLIC "-//W3C//DTD SVG 1.1//EN" "http://www.w3.org/Graphics/SVG/1.1/DTD/svg11.dtd">
<svg version="1.1" id="Layer_1" xmlns="http://www.w3.org/2000/svg" xmlns:xlink="http://www.w3.org/1999/xlink" x="0px" y="0px"
	 width="425px" height="425px" viewBox="0 0 425 425" enable-background="new 0 0 425 425" xml:space="preserve">
<g id="XMLID_2080_">
	<path id="XMLID_2082_" fill="none" stroke="#222221" stroke-width="8" stroke-miterlimit="10" d="M212.494,415.205L212.494,415.205
		c-111.945,0-202.702-90.757-202.702-202.708l0,0c0-111.95,90.757-202.702,202.702-202.702l0,0
		c111.957,0,202.714,90.752,202.714,202.702l0,0C415.208,324.447,324.451,415.205,212.494,415.205z"/>
</g>
<g>
	<polygon points="329.01,283.543 329.01,142.15 249.542,211.413 	"/>
	<path d="M96.043,139.257c0,0.082-0.053,0.149-0.053,0.236v143.018l79.38-72.044L96.043,139.257z"/>
	<path d="M227.008,214.074l94.583-82.438c-0.192-0.015-0.356-0.116-0.555-0.116h-214.45l91.724,82.341
		C206.442,221.159,218.779,221.247,227.008,214.074"/>
	<path d="M235.42,223.722c-6.482,5.647-14.562,8.464-22.641,8.464c-8.237,0-16.485-2.933-23.026-8.803l-4.818-4.326l-81.807,74.253
		c0.29,0.034,0.54,0.17,0.839,0.17h216.953l-81.093-73.604L235.42,223.722z"/>
</g>
</svg>
