<?xml version="1.0" encoding="utf-8"?>
<!-- Generator: Adobe Illustrator 16.0.0, SVG Export Plug-In . SVG Version: 6.00 Build 0)  -->
<!DOCTYPE svg PUBLIC "-//W3C//DTD SVG 1.1//EN" "http://www.w3.org/Graphics/SVG/1.1/DTD/svg11.dtd">
<svg version="1.1" id="Layer_1" xmlns="http://www.w3.org/2000/svg" xmlns:xlink="http://www.w3.org/1999/xlink" x="0px" y="0px"
	 width="425px" height="425px" viewBox="0 0 425 425" enable-background="new 0 0 425 425" xml:space="preserve">
<g id="XMLID_2080_">
	<path id="XMLID_2082_" fill="none" stroke="#ffd05a" stroke-width="15" stroke-miterlimit="10" d="M212.494,415.205L212.494,415.205
		c-111.945,0-202.702-90.757-202.702-202.708l0,0c0-111.95,90.757-202.702,202.702-202.702l0,0
		c111.957,0,202.714,90.752,202.714,202.702l0,0C415.208,324.447,324.451,415.205,212.494,415.205z"/>
</g>
<path fill="#ffd05a" d="M298.331,235.935c-7.551-0.854-15.056-2.409-22.297-4.624c-9.069-2.774-18.835-0.365-25.492,6.28l-13.846,25.852
	c-26.514-14.512-60.627-48.625-75.133-75.141l25.846-13.846c6.646-6.654,9.055-16.422,6.28-25.484
	c-2.215-7.249-3.77-14.75-4.624-22.302c-1.443-12.834-12.317-22.519-25.284-22.519h-34.176c-7.131,0-13.98,3.023-18.788,8.295
	c-4.304,4.713-6.669,10.889-6.669,17.232c0,0.78,0.036,1.555,0.109,2.335c2.256,24.524,8.755,48.198,19.319,70.371
	c10.266,21.559,24.069,41.086,41.009,58.032c16.949,16.945,36.471,30.742,58.029,41.011c22.17,10.563,45.848,17.063,70.375,19.318
	c7.144,0.655,14.271-1.738,19.562-6.56c5.269-4.808,8.298-11.662,8.298-18.79v-34.177
	C320.851,248.252,311.165,237.378,298.331,235.935"/>
</svg>
